<?xml version="1.0" encoding="utf-8"?>
<!-- Generator: Adobe Illustrator 25.4.8, SVG Export Plug-In . SVG Version: 6.00 Build 0)  -->
<svg version="1.1" id="Capa_1" xmlns="http://www.w3.org/2000/svg" xmlns:xlink="http://www.w3.org/1999/xlink" x="0px" y="0px"
	 viewBox="0 0 256 256" style="enable-background:new 0 0 256 256;" xml:space="preserve">
<style type="text/css">
	.st0{fill-rule:evenodd;clip-rule:evenodd;fill:#009587;}
	.st1{fill:#FFFFFF;}
</style>
<path class="st0" d="M128,249c-5.9,0-11.4-2.3-15.6-6.5l-98.9-98.9c-8.6-8.6-8.6-22.6,0-31.2l98.9-98.9C116.6,9.3,122.1,7,128,7
	c5.9,0,11.4,2.3,15.6,6.5l98.9,98.9c4.2,4.2,6.5,9.7,6.5,15.6c0,5.9-2.3,11.4-6.5,15.6l-98.9,98.9C139.4,246.7,133.9,249,128,249z"
	/>
<path class="st1" d="M190.8,110.2h-43.5V69.8c0-9.8-8.6-17.8-19.2-17.8s-19.2,8-19.2,17.8v40.3H65.2c-10.6,0-19.2,8-19.2,17.8
	s8.6,17.8,19.2,17.8h43.5v40.3c0,9.8,8.6,17.8,19.2,17.8s19.2-8,19.2-17.8v-40.3h43.5c10.6,0,19.2-8,19.2-17.8
	S201.4,110.2,190.8,110.2z"/>
</svg>
